<svg width="100" height="100" viewBox="0 0 100 100" fill="none" xmlns="http://www.w3.org/2000/svg">
<mask id="mask0_10_178" style="mask-type:alpha" maskUnits="userSpaceOnUse" x="4" y="14" width="92" height="86">
<path d="M50.0014 99.9985C75.1053 99.9985 95.456 80.8108 95.456 57.1416C95.456 33.4724 75.1053 14.2848 50.0014 14.2848C24.8976 14.2848 4.54688 33.4724 4.54688 57.1416C4.54688 80.8108 24.8976 99.9985 50.0014 99.9985Z" fill="white"/>
</mask>
<g mask="url(#mask0_10_178)">
<path d="M50.0014 99.9992C75.1053 99.9992 95.456 80.8116 95.456 57.1424C95.456 33.4732 75.1053 14.2856 50.0014 14.2856C24.8976 14.2856 4.54688 33.4732 4.54688 57.1424C4.54688 80.8116 24.8976 99.9992 50.0014 99.9992Z" fill="#E6E6E6"/>
<path d="M95.456 14.2848H4.54688V99.9985H95.456V14.2848Z" fill="url(#paint0_linear_10_178)"/>
</g>
<mask id="mask1_10_178" style="mask-type:alpha" maskUnits="userSpaceOnUse" x="0" y="0" width="100" height="100">
<path d="M4.54545 57.1424C4.54545 80.8116 24.8961 99.9993 50 99.9993C75.1039 99.9993 95.4545 80.8116 95.4545 57.1424H100V0H0V57.1424H4.54545Z" fill="white"/>
</mask>
<g mask="url(#mask1_10_178)">
<mask id="mask2_10_178" style="mask-type:alpha" maskUnits="userSpaceOnUse" x="12" y="12" width="76" height="88">
<path d="M59.0888 64.503V71.0704H60.604C75.6663 71.0704 87.8767 82.583 87.8767 96.7845V99.9988H12.1191V96.7845C12.1191 82.583 24.3296 71.0704 39.3919 71.0704H40.907V64.503C34.3777 61.5785 29.6844 55.6016 28.9014 48.5282C26.695 48.2341 24.9979 46.4464 24.9979 44.2849V39.2849C24.9979 37.1614 26.636 35.3986 28.7858 35.0585V32.8564C28.7858 21.8108 38.2828 12.8566 49.9979 12.8566C61.7131 12.8566 71.21 21.8108 71.21 32.8564V35.0585C73.3598 35.3986 74.9979 37.1614 74.9979 39.2849V44.2849C74.9979 46.4464 73.3008 48.2341 71.0945 48.5282C70.3115 55.6016 65.6181 61.5785 59.0888 64.503Z" fill="white"/>
</mask>
<g mask="url(#mask2_10_178)">
<path d="M59.0888 64.5026V71.0701H60.604C75.6663 71.0701 87.8767 82.5827 87.8767 96.7842V99.9984H12.1191V96.7842C12.1191 82.5827 24.3296 71.0701 39.3919 71.0701H40.907V64.5026C34.3777 61.5781 29.6844 55.6012 28.9014 48.5278C26.695 48.2337 24.9979 46.446 24.9979 44.2845V39.2846C24.9979 37.161 26.636 35.3982 28.7858 35.0582V32.8561C28.7858 21.8104 38.2828 12.8562 49.9979 12.8562C61.7131 12.8562 71.21 21.8104 71.21 32.8561V35.0582C73.3598 35.3982 74.9979 37.161 74.9979 39.2846V44.2845C74.9979 46.446 73.3008 48.2337 71.0945 48.5278C70.3115 55.6012 65.6181 61.5781 59.0888 64.5026Z" fill="#D0C6AC"/>
<path d="M100 12.8569H0V99.9992H100V12.8569Z" fill="#EDB98A"/>
<path fill-rule="evenodd" clip-rule="evenodd" d="M71.2109 41.0712V49.2855C71.2109 60.3311 61.7139 69.2853 49.9987 69.2853C38.2836 69.2853 28.7866 60.3311 28.7866 49.2855V41.0712V46.4283C28.7866 57.4739 38.2836 66.4282 49.9987 66.4282C61.7139 66.4282 71.2109 57.4739 71.2109 46.4283V41.0712Z" fill="black" fill-opacity="0.1"/>
</g>
<mask id="mask3_10_178" style="mask-type:alpha" maskUnits="userSpaceOnUse" x="12" y="71" width="76" height="29">
<path fill-rule="evenodd" clip-rule="evenodd" d="M62.8617 71.1764C76.8678 72.2586 87.8767 83.3189 87.8767 96.8036V99.9994H12.1191V96.8036C12.1191 83.1969 23.3282 72.0586 37.5151 71.1495C37.5037 71.2829 37.4979 71.4172 37.4979 71.5524C37.4979 75.7892 43.1792 79.2237 50.1873 79.2237C57.1955 79.2237 62.8767 75.7892 62.8767 71.5524C62.8767 71.4263 62.8717 71.301 62.8617 71.1764Z" fill="white"/>
</mask>
<g mask="url(#mask3_10_178)">
<path fill-rule="evenodd" clip-rule="evenodd" d="M62.8617 71.176C76.8678 72.2582 87.8767 83.3186 87.8767 96.8033V99.9991H12.1191V96.8033C12.1191 83.1965 23.3282 72.0582 37.5151 71.1491C37.5037 71.2825 37.4979 71.4169 37.4979 71.552C37.4979 75.7888 43.1792 79.2234 50.1873 79.2234C57.1955 79.2234 62.8767 75.7888 62.8767 71.552C62.8767 71.4259 62.8717 71.3006 62.8617 71.176Z" fill="#E6E6E6"/>
<path d="M100 60.7147H0V100H100V60.7147Z" fill="#E6E6E6"/>
<g opacity="0.6">
<g opacity="0.6">
<path opacity="0.6" d="M50.1896 81.7002C58.4812 81.7002 65.2029 77.3968 65.2029 72.0882C65.2029 66.7796 58.4812 62.4762 50.1896 62.4762C41.898 62.4762 35.1763 66.7796 35.1763 72.0882C35.1763 77.3968 41.898 81.7002 50.1896 81.7002Z" fill="black" fill-opacity="0.16"/>
</g>
</g>
</g>
<path fill-rule="evenodd" clip-rule="evenodd" d="M44.6982 53.2134C44.6982 55.9748 47.0725 58.2133 50.0013 58.2133C52.9301 58.2133 55.3043 55.9748 55.3043 53.2134" fill="black" fill-opacity="0.7"/>
<path fill-rule="evenodd" clip-rule="evenodd" d="M45.4526 46.4267C45.4526 48.0046 47.4877 49.2838 49.9981 49.2838C52.5085 49.2838 54.5435 48.0046 54.5435 46.4267" fill="black" fill-opacity="0.16"/>
<path d="M40.1521 42.14C41.4073 42.14 42.4248 41.1806 42.4248 39.9972C42.4248 38.8137 41.4073 37.8543 40.1521 37.8543C38.8969 37.8543 37.8794 38.8137 37.8794 39.9972C37.8794 41.1806 38.8969 42.14 40.1521 42.14Z" fill="black" fill-opacity="0.6"/>
<path d="M59.8494 42.14C61.1046 42.14 62.1221 41.1806 62.1221 39.9972C62.1221 38.8137 61.1046 37.8543 59.8494 37.8543C58.5942 37.8543 57.5767 38.8137 57.5767 39.9972C57.5767 41.1806 58.5942 42.14 59.8494 42.14Z" fill="black" fill-opacity="0.6"/>
<path d="M34.7086 35.4123C36.1916 33.4449 40.257 32.3417 43.7589 33.1525C44.1653 33.2466 44.5756 33.0123 44.6753 32.6292C44.7751 32.2461 44.5266 31.8592 44.1203 31.7651C40.0534 30.8235 35.3457 32.101 33.4736 34.5847C33.2312 34.9063 33.3112 35.3522 33.6523 35.5807C33.9933 35.8092 34.4663 35.7338 34.7086 35.4123Z" fill="black" fill-opacity="0.6"/>
<path d="M65.2915 35.4123C63.8086 33.4449 59.7431 32.3417 56.2412 33.1525C55.8349 33.2466 55.4246 33.0123 55.3248 32.6292C55.225 32.2461 55.4735 31.8592 55.8798 31.7651C59.9467 30.8235 64.6544 32.101 66.5265 34.5847C66.7689 34.9063 66.6889 35.3522 66.3478 35.5807C66.0068 35.8092 65.5338 35.7338 65.2915 35.4123Z" fill="black" fill-opacity="0.6"/>
<mask id="mask4_10_178" style="mask-type:alpha" maskUnits="userSpaceOnUse" x="0" y="0" width="100" height="100">
<path d="M100 0H0V99.9993H100V0Z" fill="white"/>
</mask>
<g mask="url(#mask4_10_178)">
<mask id="mask5_10_178" style="mask-type:alpha" maskUnits="userSpaceOnUse" x="27" y="34" width="46" height="37">
<path fill-rule="evenodd" clip-rule="evenodd" d="M57.9606 59.3304C56.4957 61.3274 55.3999 59.9793 53.8393 58.8827C52.8996 58.2224 51.4997 57.4011 50.1904 57.4416C48.8811 57.4011 47.4811 58.2224 46.5414 58.8827C44.9808 59.9793 43.885 61.3274 42.4202 59.3304C41.3207 57.8314 41.7808 55.3105 42.8081 53.8922C44.2698 51.8739 46.2527 52.8501 48.4699 52.6198C49.0728 52.5573 49.6784 52.3994 50.1904 52.1413C50.7025 52.3994 51.3079 52.5573 51.9108 52.6198C54.1281 52.8501 56.111 51.8739 57.5728 53.8922C58.6 55.3105 59.06 57.8314 57.9606 59.3304ZM71.3596 34.9985C70.0624 40.0252 69.4664 45.1534 68.5259 50.2381C68.3299 51.2981 68.1153 52.3542 67.8875 53.409C67.8396 53.6305 67.7925 54.4529 67.561 54.5571C66.8598 54.8728 65.4309 53.1936 65.0488 52.8145C64.0891 51.8624 63.1376 50.9017 61.9688 50.1546C59.6072 48.645 56.8424 47.7523 53.9653 47.5405C52.7616 47.4518 51.1339 47.6065 49.9994 48.2522C48.8649 47.6065 47.2373 47.4518 46.0334 47.5405C43.1563 47.7523 40.3914 48.645 38.0298 50.1546C36.8611 50.9017 35.9097 51.8624 34.9499 52.8145C34.5678 53.1936 33.1389 54.8728 32.4377 54.5571C32.2062 54.4529 32.159 53.6305 32.1112 53.409C31.8834 52.3542 31.6688 51.2981 31.4728 50.2381C30.5324 45.1534 29.9364 40.0252 28.6392 34.9985C28.2618 34.9985 27.9306 41.6941 27.8885 42.318C27.7171 44.8517 27.5169 47.329 27.7727 49.8649C28.2137 54.2394 28.6734 59.7248 32.2087 63.0653C35.4031 66.0838 40.0411 66.7149 44.0415 68.6202C44.5566 68.8655 45.2398 69.1684 45.9766 69.4165C46.7527 69.9748 48.2921 70.3554 50.0653 70.3554C51.9254 70.3554 53.528 69.9367 54.2623 69.3332C54.9065 69.1028 55.4986 68.8386 55.9572 68.6202C59.9572 66.7145 64.5956 66.0838 67.79 63.0653C71.3253 59.7248 71.785 54.2394 72.2261 49.8649C72.4818 47.329 72.2816 44.8517 72.1103 42.318C72.0681 41.6941 71.7369 34.9985 71.3596 34.9985Z" fill="white"/>
</mask>
<g mask="url(#mask5_10_178)">
<path fill-rule="evenodd" clip-rule="evenodd" d="M57.9606 59.3311C56.4957 61.3281 55.3999 59.9801 53.8393 58.8835C52.8996 58.2231 51.4997 57.4018 50.1904 57.4423C48.8811 57.4018 47.4811 58.2231 46.5414 58.8835C44.9808 59.9801 43.885 61.3281 42.4202 59.3311C41.3207 57.8321 41.7808 55.3112 42.8081 53.893C44.2698 51.8746 46.2527 52.8508 48.4699 52.6206C49.0728 52.558 49.6784 52.4002 50.1904 52.142C50.7025 52.4002 51.3079 52.558 51.9108 52.6206C54.1281 52.8508 56.111 51.8746 57.5728 53.893C58.6 55.3112 59.06 57.8321 57.9606 59.3311ZM71.3596 34.9993C70.0624 40.026 69.4664 45.1541 68.5259 50.2389C68.3299 51.2988 68.1153 52.355 67.8875 53.4097C67.8396 53.6312 67.7925 54.4536 67.561 54.5578C66.8598 54.8736 65.4309 53.1944 65.0488 52.8153C64.0891 51.8632 63.1376 50.9025 61.9688 50.1553C59.6072 48.6457 56.8424 47.7531 53.9653 47.5413C52.7616 47.4525 51.1339 47.6072 49.9994 48.2529C48.8649 47.6072 47.2373 47.4525 46.0334 47.5413C43.1563 47.7531 40.3914 48.6457 38.0298 50.1553C36.8611 50.9025 35.9097 51.8632 34.9499 52.8153C34.5678 53.1944 33.1389 54.8736 32.4377 54.5578C32.2062 54.4536 32.159 53.6312 32.1112 53.4097C31.8834 52.355 31.6688 51.2988 31.4728 50.2389C30.5324 45.1541 29.9364 40.026 28.6392 34.9993C28.2618 34.9993 27.9306 41.6949 27.8885 42.3187C27.7171 44.8524 27.5169 47.3297 27.7727 49.8656C28.2137 54.2402 28.6734 59.7255 32.2087 63.066C35.4031 66.0846 40.0411 66.7156 44.0415 68.6209C44.5566 68.8662 45.2398 69.1691 45.9766 69.4173C46.7527 69.9755 48.2921 70.3562 50.0653 70.3562C51.9254 70.3562 53.528 69.9374 54.2623 69.334C54.9065 69.1035 55.4986 68.8393 55.9572 68.6209C59.9572 66.7152 64.5956 66.0846 67.79 63.066C71.3253 59.7255 71.785 54.2402 72.2261 49.8656C72.4818 47.3297 72.2816 44.8524 72.1103 42.3187C72.0681 41.6949 71.7369 34.9993 71.3596 34.9993Z" fill="#252E32"/>
<path d="M106.061 25.7134H6.06104V112.856H106.061V25.7134Z" fill="#4A312C"/>
</g>
<mask id="mask6_10_178" style="mask-type:alpha" maskUnits="userSpaceOnUse" x="27" y="3" width="47" height="33">
<path fill-rule="evenodd" clip-rule="evenodd" d="M35.3229 18.5794C35.3695 18.56 35.2539 18.5525 34.976 18.5571C35.3137 18.5564 35.4294 18.5638 35.3229 18.5794ZM32.2415 12.965C32.2407 12.958 32.2479 13.0189 32.2415 12.965V12.965ZM73.0173 25.2735C72.9173 24.0889 72.74 22.9114 72.4422 21.754C72.2056 20.8341 71.8824 19.9563 71.5002 19.0787C71.2694 18.5484 70.7304 17.8201 70.667 17.2481C70.6046 16.6847 71.0709 16.0605 71.1704 15.4045C71.267 14.7661 71.2506 14.0948 71.1117 13.4622C70.7961 12.0255 69.7503 10.6894 68.1355 10.3149C67.775 10.2313 67.0129 10.3344 66.7581 10.1364C66.466 9.90942 66.2626 9.13611 65.9982 8.82593C65.2443 7.94166 64.0684 7.37221 62.8282 7.57074C61.915 7.71687 62.4394 7.89492 61.7548 7.38817C61.3741 7.10645 61.0897 6.6763 60.7199 6.37132C60.1642 5.91317 59.5266 5.52096 58.8669 5.19909C57.1409 4.35694 55.1723 3.74479 53.2442 3.44641C49.7271 2.90206 45.9733 3.37665 42.5641 4.23905C40.8677 4.66816 39.1599 5.21274 37.5843 5.93295C36.9088 6.24174 36.5188 6.49789 35.8144 6.57877C34.705 6.70615 33.7655 6.69978 32.7147 7.14336C29.4812 8.50834 28.0248 11.6751 29.283 14.7055C29.5361 15.315 29.8788 15.8502 30.3513 16.3425C30.9273 16.9427 31.1357 16.8246 30.6395 17.5148C29.8976 18.5469 29.2721 19.6475 28.7628 20.7904C27.4261 23.791 27.2024 27.1704 27.2895 30.3705C27.3199 31.4908 27.3709 32.6248 27.5583 33.7343C27.6392 34.2146 27.6619 35.1176 28.0439 35.4739C28.2378 35.6546 28.5139 35.7554 28.7895 35.6835C29.437 35.5143 29.2144 35.0638 29.2294 34.6455C29.3051 32.5443 29.2029 30.6854 29.7329 28.6095C30.1244 27.0757 30.7769 25.6827 31.6225 24.3112C32.6977 22.5669 33.8585 21.035 35.3372 19.5413C35.6848 19.1901 35.7608 19.0412 36.227 19.0157C36.58 18.9965 37.0964 19.2244 37.4396 19.3033C38.1963 19.4772 38.9545 19.6492 39.725 19.7662C41.1416 19.9816 42.5444 19.996 43.9737 19.9538C46.7868 19.8708 49.6119 19.6848 52.3393 19.0169C54.1506 18.5734 55.7565 17.7773 57.4915 17.1937C57.5224 17.1833 57.9573 16.8912 58.0335 16.9031C58.1399 16.9197 58.7823 17.5552 58.8908 17.6352C59.7338 18.2586 60.6585 18.5203 61.569 19.003C62.6915 19.5981 61.6044 18.7465 62.2235 19.4882C62.404 19.7042 62.4964 20.1048 62.6411 20.3495C63.1017 21.129 63.7425 21.8142 64.5089 22.3578C65.2495 22.8831 66.3624 23.1368 66.74 23.8205C67.0312 24.3479 67.1294 25.0648 67.3644 25.6279C67.9808 27.1047 68.7949 28.482 69.609 29.873C70.2648 30.994 70.9822 31.9732 71.0551 33.2542C71.0804 33.7001 70.6304 36.3747 71.7266 35.5613C71.8891 35.4407 72.2394 34.077 72.3114 33.8456C72.6035 32.9054 72.7074 31.9238 72.8396 30.9577C73.1027 29.0365 73.1891 27.2085 73.0173 25.2735Z" fill="white"/>
</mask>
<g mask="url(#mask6_10_178)">
<path fill-rule="evenodd" clip-rule="evenodd" d="M35.3229 18.579C35.3695 18.5596 35.2539 18.5521 34.976 18.5566C35.3137 18.556 35.4294 18.5634 35.3229 18.579ZM32.2415 12.9646C32.2407 12.9576 32.2479 13.0185 32.2415 12.9646V12.9646ZM73.0173 25.2731C72.9173 24.0884 72.74 22.911 72.4422 21.7536C72.2056 20.8337 71.8824 19.9559 71.5002 19.0782C71.2694 18.548 70.7304 17.8197 70.667 17.2477C70.6046 16.6843 71.0709 16.0601 71.1704 15.4041C71.267 14.7657 71.2506 14.0944 71.1117 13.4618C70.7961 12.0251 69.7503 10.689 68.1355 10.3145C67.775 10.2309 67.0129 10.3339 66.7581 10.136C66.466 9.90899 66.2626 9.13568 65.9982 8.8255C65.2443 7.94124 64.0684 7.37178 62.8282 7.57031C61.915 7.71644 62.4394 7.89449 61.7548 7.38775C61.3741 7.10603 61.0897 6.67587 60.7199 6.37089C60.1642 5.91274 59.5266 5.52053 58.8669 5.19866C57.1409 4.35651 55.1723 3.74437 53.2442 3.44599C49.7271 2.90164 45.9733 3.37622 42.5641 4.23862C40.8677 4.66774 39.1599 5.21232 37.5843 5.93252C36.9088 6.24132 36.5188 6.49747 35.8144 6.57834C34.705 6.70572 33.7655 6.69936 32.7147 7.14293C29.4812 8.50791 28.0248 11.6746 29.283 14.705C29.5361 15.3145 29.8788 15.8497 30.3513 16.342C30.9273 16.9423 31.1357 16.8241 30.6395 17.5144C29.8976 18.5465 29.2721 19.6471 28.7628 20.79C27.4261 23.7905 27.2024 27.17 27.2895 30.37C27.3199 31.4903 27.3709 32.6244 27.5583 33.7339C27.6392 34.2142 27.6619 35.1172 28.0439 35.4735C28.2378 35.6542 28.5139 35.755 28.7895 35.683C29.437 35.5139 29.2144 35.0634 29.2294 34.6451C29.3051 32.5439 29.2029 30.685 29.7329 28.609C30.1244 27.0753 30.7769 25.6823 31.6225 24.3108C32.6977 22.5665 33.8585 21.0345 35.3372 19.5409C35.6848 19.1897 35.7608 19.0408 36.227 19.0153C36.58 18.9961 37.0964 19.224 37.4396 19.3029C38.1963 19.4768 38.9545 19.6487 39.725 19.7658C41.1416 19.9811 42.5444 19.9956 43.9737 19.9534C46.7868 19.8704 49.6119 19.6844 52.3393 19.0165C54.1506 18.573 55.7565 17.7769 57.4915 17.1933C57.5224 17.1829 57.9573 16.8908 58.0335 16.9027C58.1399 16.9192 58.7823 17.5548 58.8908 17.6348C59.7338 18.2582 60.6585 18.5199 61.569 19.0026C62.6915 19.5977 61.6044 18.7461 62.2235 19.4878C62.404 19.7038 62.4964 20.1043 62.6411 20.349C63.1017 21.1286 63.7425 21.8138 64.5089 22.3574C65.2495 22.8827 66.3624 23.1364 66.74 23.82C67.0312 24.3475 67.1294 25.0643 67.3644 25.6274C67.9808 27.1043 68.7949 28.4815 69.609 29.8725C70.2648 30.9935 70.9822 31.9728 71.0551 33.2538C71.0804 33.6997 70.6304 36.3743 71.7266 35.5609C71.8891 35.4403 72.2394 34.0766 72.3114 33.8452C72.6035 32.9049 72.7074 31.9234 72.8396 30.9573C73.1027 29.0361 73.1891 27.2081 73.0173 25.2731Z" fill="#28354B"/>
<path d="M99.6216 0.000793457H-0.378418V100H99.6216V0.000793457Z" fill="#4A312C"/>
</g>
</g>
</g>
<defs>
<linearGradient id="paint0_linear_10_178" x1="4.54688" y1="14.2848" x2="4.54688" y2="99.9985" gradientUnits="userSpaceOnUse">
<stop stop-color="#6F5EE2"/>
<stop offset="1" stop-color="#6D5ED2"/>
</linearGradient>
</defs>
</svg>
