<svg width="30" height="30" viewBox="0 0 30 30" fill="none" xmlns="http://www.w3.org/2000/svg">
<path d="M15.3062 12.2732V18.0824H23.5437C23.182 19.9506 22.0965 21.5325 20.4685 22.5962L25.4361 26.3735C28.3303 23.7554 30.0001 19.9098 30.0001 15.3416C30.0001 14.2779 29.9028 13.2551 29.7218 12.2734L15.3062 12.2732Z" fill="#4285F4"/>
<path d="M6.72826 17.8549L5.60788 18.6953L1.64209 21.7226C4.16067 26.6181 9.32269 30.0001 15.306 30.0001C19.4386 30.0001 22.9034 28.6637 25.4359 26.3728L20.4684 22.5954C19.1047 23.4954 17.3653 24.0409 15.306 24.0409C11.3264 24.0409 7.9452 21.4091 6.73452 17.8635L6.72826 17.8549Z" fill="#34A853"/>
<path d="M1.64183 8.27698C0.598276 10.2951 0 12.5725 0 14.9997C0 17.427 0.598276 19.7044 1.64183 21.7225C1.64183 21.736 6.73475 17.8497 6.73475 17.8497C6.42863 16.9497 6.24768 15.9952 6.24768 14.9996C6.24768 14.004 6.42863 13.0495 6.73475 12.1495L1.64183 8.27698Z" fill="#FBBC05"/>
<path d="M15.3062 5.97283C17.5604 5.97283 19.5641 6.73646 21.1643 8.20924L25.5474 3.91376C22.8897 1.48648 19.4389 0 15.3062 0C9.32282 0 4.16049 3.36824 1.64191 8.27744L6.73467 12.1502C7.94519 8.60468 11.3265 5.97283 15.3062 5.97283Z" fill="#EA4335"/>
</svg>
