<svg width="100" height="103" viewBox="0 0 100 103" fill="none" xmlns="http://www.w3.org/2000/svg">
<circle cx="50" cy="50" r="50" fill="#6D5ED2"/>
<path d="M26.4282 63.8348L26.1319 64.1311C25.2306 63.6348 24.3596 63.4069 23.519 63.4474C22.6733 63.4829 21.9365 63.8146 21.3086 64.4425C20.9997 64.7514 20.7794 65.0983 20.6477 65.4831C20.5161 65.8579 20.4907 66.2377 20.5718 66.6225C20.6528 66.9973 20.8427 67.334 21.1414 67.6328C21.3136 67.8049 21.5111 67.9467 21.7339 68.0581C21.9618 68.1645 22.3087 68.2278 22.7746 68.248C23.2404 68.2683 23.8481 68.1974 24.5976 68.0354C25.428 67.8429 25.942 67.7341 26.1395 67.7087C27.1776 67.4707 28.0714 67.3213 28.8209 67.2606C29.5703 67.1998 30.2514 67.2631 30.8642 67.4505C31.4769 67.6378 32.0365 67.9847 32.5429 68.4911C33.0087 68.957 33.3429 69.4735 33.5455 70.0407C33.7481 70.5977 33.824 71.1851 33.7734 71.8029C33.7227 72.4106 33.5455 73.0233 33.2417 73.6411C32.9378 74.2488 32.5175 74.821 31.9808 75.3578C31.4288 75.9097 30.6869 76.444 29.7552 76.9605C29.6539 77.0213 29.5273 77.1023 29.3754 77.2036C29.2285 77.2998 29.107 77.396 29.0108 77.4922C28.7728 77.7302 28.7247 78.0265 28.8664 78.3809L28.6006 78.6468L25.5091 75.4185L25.8053 75.1223C26.4991 75.6236 27.203 75.9173 27.917 76.0034C28.636 76.0844 29.2868 76.0161 29.8691 75.7983C30.4464 75.5755 30.9275 75.2717 31.3123 74.8868C31.8744 74.3247 32.1808 73.7044 32.2314 73.0258C32.2871 72.3422 32.0896 71.7751 31.6389 71.3244C31.3351 71.0205 30.9933 70.8357 30.6135 70.7699C30.2337 70.6939 29.7805 70.7015 29.2538 70.7927C28.7221 70.8787 27.7549 71.0762 26.3522 71.3851C25.6078 71.5421 24.9394 71.6434 24.3469 71.689C23.7595 71.7295 23.2531 71.7143 22.8277 71.6434C22.3973 71.5674 22.02 71.4434 21.6959 71.2712C21.3719 71.0889 21.068 70.856 20.7844 70.5724C20.2375 70.0255 19.8375 69.3469 19.5843 68.5367C19.3362 67.7214 19.3032 66.8884 19.4855 66.0376C19.6628 65.1818 20.0831 64.4223 20.7465 63.7589C21.0554 63.45 21.382 63.1841 21.7263 62.9613C21.8124 62.8955 21.9365 62.817 22.0985 62.7258C22.2555 62.6296 22.3872 62.5486 22.4935 62.4828C22.7568 62.3005 22.9442 62.1536 23.0556 62.0422C23.2278 61.87 23.3189 61.7232 23.3291 61.6017C23.3442 61.4751 23.3291 61.3282 23.2835 61.1611L23.519 60.9256L26.4282 63.8348ZM30.9097 64.9286C30.1502 64.1691 29.5526 63.3133 29.1171 62.3612C28.6867 61.4042 28.4639 60.4116 28.4487 59.3837C28.4284 58.3506 28.6335 57.3302 29.0639 56.3225C29.4944 55.3047 30.1653 54.34 31.0768 53.4285C31.9985 52.5069 32.9682 51.8359 33.9861 51.4156C35.0039 50.9852 36.0268 50.7826 37.0548 50.8079C38.0878 50.8282 39.0804 51.056 40.0324 51.4915C40.9793 51.922 41.8427 52.5271 42.6226 53.307C43.3974 54.0817 44 54.9375 44.4304 55.8744C44.8659 56.8061 45.1039 57.7784 45.1444 58.7912C45.1849 59.804 44.9874 60.8319 44.5519 61.8751C44.1215 62.9132 43.4404 63.8981 42.5086 64.8299C41.506 65.8326 40.4603 66.539 39.3715 66.9491C38.2828 67.3492 37.2194 67.5062 36.1813 67.4201C35.1482 67.3289 34.1785 67.058 33.2721 66.6073C32.3656 66.1566 31.5782 65.5971 30.9097 64.9286ZM33.424 62.1258C34.1836 62.8854 34.9887 63.5791 35.8395 64.207C36.6902 64.8248 37.6751 65.2173 38.7943 65.3844C39.9083 65.5464 40.9439 65.1489 41.901 64.1918C43.2429 62.8499 43.5619 61.4523 42.858 59.9989C42.1542 58.5355 41.2401 57.2416 40.1159 56.1174C39.2399 55.2414 38.3436 54.497 37.427 53.8842C36.5104 53.2715 35.5458 52.9297 34.533 52.8588C33.5202 52.7778 32.5859 53.1652 31.7301 54.021C30.7679 54.9831 30.3603 56.0136 30.5072 57.1125C30.654 58.2012 31.0186 59.1532 31.601 59.9685C32.1884 60.7788 32.796 61.4978 33.424 62.1258ZM43.7164 52.122C42.9568 51.3624 42.3593 50.5066 41.9238 49.5546C41.4933 48.5975 41.2705 47.605 41.2553 46.577C41.2351 45.544 41.4402 44.5236 41.8706 43.5159C42.301 42.498 42.972 41.5334 43.8835 40.6218C44.8051 39.7002 45.7749 39.0292 46.7927 38.6089C47.8106 38.1785 48.8335 37.976 49.8614 38.0013C50.8945 38.0215 51.887 38.2494 52.839 38.6849C53.786 39.1153 54.6494 39.7205 55.4292 40.5003C56.204 41.2751 56.8066 42.1309 57.237 43.0677C57.6725 43.9995 57.9105 44.9718 57.951 45.9845C57.9916 46.9973 57.7941 48.0253 57.3586 49.0685C56.9281 50.1066 56.247 51.0915 55.3153 52.0233C54.3126 53.0259 53.2669 53.7323 52.1782 54.1425C51.0894 54.5426 50.026 54.6995 48.9879 54.6134C47.9549 54.5223 46.9851 54.2514 46.0787 53.8007C45.1723 53.35 44.3848 52.7904 43.7164 52.122ZM46.2306 49.3191C46.9902 50.0787 47.7954 50.7725 48.6461 51.4004C49.4968 52.0182 50.4818 52.4106 51.6009 52.5778C52.715 52.7398 53.7505 52.3423 54.7076 51.3852C56.0495 50.0433 56.3686 48.6456 55.6647 47.1923C54.9608 45.7288 54.0468 44.435 52.9226 43.3108C52.0465 42.4347 51.1502 41.6903 50.2336 41.0776C49.3171 40.4649 48.3524 40.1231 47.3396 40.0522C46.3268 39.9711 45.3925 40.3585 44.5367 41.2143C43.5746 42.1765 43.1669 43.207 43.3138 44.3058C43.4607 45.3946 43.8253 46.3466 44.4076 47.1619C44.995 47.9721 45.6027 48.6912 46.2306 49.3191ZM54.662 30.056L68.6992 30.4358L63.5796 25.3162C62.9061 24.6427 62.3111 24.3211 61.7946 24.3515C61.273 24.3768 60.6906 24.63 60.0475 25.1111L59.8272 24.8908L63.6859 21.0321L63.9062 21.2524C63.5264 21.7233 63.3264 22.1563 63.3061 22.5513C63.2808 22.9412 63.3618 23.2906 63.5492 23.5995C63.7366 23.9084 63.9974 24.23 64.3316 24.5642L73.553 33.7856L73.2719 34.0666L56.4699 33.6412L62.7668 39.9382C63.2935 40.4649 63.8556 40.8041 64.4531 40.9561C65.0507 41.0979 65.6761 40.8877 66.3293 40.3256L66.5496 40.5459L62.5541 44.5413L62.3339 44.321C63.3618 43.1108 63.3669 42.0068 62.3491 41.0092L54.9431 33.6033C54.8924 33.6134 54.8165 33.6185 54.7152 33.6185C54.6241 33.6185 54.4747 33.621 54.267 33.626C54.0594 33.6311 53.8721 33.6362 53.705 33.6412C52.3731 33.6666 51.4135 33.897 50.8261 34.3325L50.6058 34.1122L54.662 30.056Z" fill="black"/>
</svg>
